# xmcd CD database file
#
# Track frame offsets:
#	150
#	19151
#	32264
#	48334
#	60307
#	73579
#
# Disc length: 1192 seconds
#
# Revision: 0
# Processed by: cddbd v1.5.1PL0 Copyright (c) Steve Scherf et al.
# Submitted via: CDex 1.51
#
DISCID=4104a606
DTITLE=Various Artist - Fabtone Records Label Sampler Vol.1
DYEAR=2005
DGENRE=Emo
TTITLE0=Jebediah - First Time
TTITLE1=Parker Theory - She Said
TTITLE2=Waking Ashland - I Am For You
TTITLE3=A Burning Water - Out In The Dark
TTITLE4=Kane Hodder - I Think Patrick Swayze Is Sexy
TTITLE5=White Light Motorcade - What Are You Waiting...
EXTD=YEAR: 2005
EXTT0=
EXTT1=
EXTT2=
EXTT3=
EXTT4=
EXTT5=
PLAYORDER=
